<!-- Generated-from-logo:EC4B8EF3CAB8 | Source: logo.svg | Mode: exact-copy | 2025-09-25T19:15:20.1009150-04:00 -->
<svg version="1.1" id="Layer_1" xmlns="http://www.w3.org/2000/svg" xmlns:xlink="http://www.w3.org/1999/xlink" x="0px" y="0px"
	 width="100%" viewBox="0 0 1024 1024" enable-background="new 0 0 1024 1024" xml:space="preserve">
<path fill="#EBEAEA" opacity="1.000000" stroke="none" 
	d="
M643.000000,1025.000000 
	C428.666656,1025.000000 214.833328,1025.000000 1.000000,1025.000000 
	C1.000000,683.666687 1.000000,342.333344 1.000000,1.000000 
	C342.333344,1.000000 683.666687,1.000000 1025.000000,1.000000 
	C1025.000000,342.333344 1025.000000,683.666687 1025.000000,1025.000000 
	C897.833313,1025.000000 770.666687,1025.000000 643.000000,1025.000000 
M246.125595,717.821350 
	C246.079239,719.216736 246.032883,720.612061 245.424301,722.619690 
	C245.089554,730.139587 243.626266,737.738770 247.048996,745.795105 
	C247.040482,746.858948 247.031967,747.922852 246.598618,749.314636 
	C247.001770,749.865356 247.404907,750.416077 247.961273,751.645264 
	C247.951523,752.107605 247.941772,752.569885 247.477173,753.407715 
	C247.627609,754.259583 247.778046,755.111450 247.960434,756.628784 
	C247.977051,757.072510 247.993668,757.516174 248.002640,758.766479 
	C248.591003,760.496887 249.179352,762.227295 249.949417,764.686401 
	C250.002640,765.434692 250.055878,766.183044 249.602386,767.322632 
	C250.019180,768.205566 250.435974,769.088562 251.034317,770.631531 
	C251.078232,771.310913 251.122147,771.990234 250.901230,772.901672 
	C251.034546,772.874390 251.167862,772.847107 251.732986,773.439331 
	C255.226089,786.240051 258.719177,799.040833 261.678711,812.413757 
	C257.370270,813.619934 252.931595,814.491577 248.782501,816.107056 
	C241.693146,818.867310 234.475784,821.547729 227.889984,825.281006 
	C221.561478,828.868469 221.304642,834.281799 226.653580,839.036499 
	C229.325012,841.411133 232.542099,843.612366 235.898346,844.690125 
	C244.575470,847.476440 253.333511,850.613708 262.298065,851.788879 
	C289.207581,855.316162 316.185730,858.513428 343.225555,860.787720 
	C362.397644,862.400208 381.710907,862.767944 400.965240,862.863464 
	C427.079315,862.992981 453.198090,862.382202 479.313110,861.976746 
	C487.109680,861.855835 494.910004,861.508301 502.692017,861.006958 
	C527.500793,859.408569 552.313965,857.848328 577.100952,855.953003 
	C590.634277,854.918152 604.198486,853.763367 617.604675,851.717957 
	C635.927063,848.922607 654.229431,845.750061 672.305786,841.693726 
	C681.083984,839.723877 689.689636,836.072388 697.710632,831.906250 
	C705.230042,828.000671 705.046448,821.130493 697.515930,816.926208 
	C691.497375,813.566040 684.900452,810.560120 678.197449,809.241455 
	C661.325195,805.922241 644.325928,802.870605 627.232788,801.148376 
	C605.971252,799.006042 584.574097,798.108948 563.216675,797.054871 
	C549.111023,796.358643 534.971741,796.347717 520.849121,795.971436 
	C519.930237,795.947083 519.024719,795.419983 518.812378,794.919800 
	C526.561951,791.692261 534.311523,788.464722 542.795105,785.088257 
	C552.717041,780.162964 562.669250,775.297180 572.536865,770.265503 
	C574.672485,769.176575 576.504211,767.491882 579.168945,766.038269 
	C591.632202,760.338806 603.777222,754.065308 613.352905,743.981262 
	C621.520447,735.379944 619.449036,724.455750 608.723633,719.542236 
	C586.209229,709.228210 565.290405,696.339600 545.664795,681.286255 
	C511.012360,654.706970 482.004517,622.646423 456.053894,587.798645 
	C438.956909,564.839966 422.868958,541.129822 406.133728,517.035095 
	C403.300598,509.728027 400.467499,502.420959 397.632965,494.323639 
	C397.090790,491.379425 396.640778,488.414703 395.991516,485.494293 
	C391.621918,465.839722 379.339203,451.952454 354.422302,460.038086 
	C352.568695,460.639557 350.518860,460.636261 348.354797,460.102295 
	C345.519501,449.626465 342.684204,439.150665 339.819031,427.926605 
	C325.550598,372.550537 311.366364,317.152618 296.983978,261.806152 
	C287.492554,225.281342 277.714142,188.831100 268.068817,152.346252 
	C265.027374,140.841476 257.969757,132.815125 246.656250,129.234604 
	C225.602219,122.571365 204.704086,142.111542 209.760788,163.655869 
	C212.380188,174.816040 215.570038,185.841904 218.474808,196.935608 
	C235.150406,260.621918 251.833755,324.306213 268.478210,388.000671 
	C273.391571,406.802979 278.187164,425.636047 283.003143,445.183258 
	C285.698792,455.443268 288.394409,465.703278 290.608093,476.556183 
	C287.405365,477.364014 284.190765,478.127686 281.002106,478.987610 
	C269.747467,482.022736 260.938507,491.938110 261.309052,503.495392 
	C261.572876,511.722534 264.277802,519.871399 265.902313,528.895935 
	C265.704254,537.555908 265.506195,546.215820 265.175720,555.750732 
	C261.385834,580.179382 257.595978,604.608093 253.143997,629.198486 
	C253.086853,630.794006 253.029709,632.389465 253.024124,634.673096 
	C252.957413,635.126770 252.890701,635.580444 252.114227,636.231689 
	C251.777649,639.843689 251.441055,643.455627 251.126526,647.903931 
	C250.976822,649.286499 250.827118,650.669128 250.063538,652.212891 
	C250.037659,653.472656 250.011795,654.732422 250.049377,656.839905 
	C249.916382,658.245728 249.783401,659.651489 248.966812,661.291626 
	C247.977295,668.763977 246.892990,676.225952 246.070511,683.716614 
	C245.884537,685.410461 246.608932,687.204285 247.011917,689.721313 
	C246.950256,690.492249 246.888611,691.263184 246.080948,692.261536 
	C246.049698,700.505371 246.018448,708.749207 246.125595,717.821350 
M864.933716,380.343597 
	C860.415649,367.660675 852.746521,357.424164 841.033813,350.612915 
	C786.486450,318.891937 731.903809,287.231598 677.291809,255.622055 
	C659.953552,245.586685 642.085815,244.960571 624.408264,254.357285 
	C610.600403,261.697021 597.216370,269.839935 583.705505,277.731232 
	C542.159058,301.997253 500.615448,326.268402 459.127136,350.633545 
	C442.941833,360.138824 433.055908,374.305634 432.285767,393.094025 
	C431.385986,415.045227 432.111206,437.063080 432.071472,459.500000 
	C432.071472,459.500000 432.123901,459.948914 432.000366,460.885559 
	C431.984100,471.380737 432.219543,481.884491 431.860626,492.367950 
	C431.631836,499.050171 433.414642,504.736938 437.411743,510.012207 
	C461.535309,541.850037 484.667755,574.491577 509.887421,605.433228 
	C543.753906,646.983704 585.802124,678.519470 635.142029,699.886780 
	C642.452026,703.052368 648.184998,707.526428 653.061218,713.688477 
	C654.535706,715.551697 657.651367,717.056213 660.039551,717.091797 
	C669.880127,717.238586 678.404846,712.834106 686.628296,708.015015 
	C736.897400,678.556274 787.050354,648.898315 837.412964,619.600586 
	C852.388184,610.888977 862.030762,598.574158 867.056274,581.733276 
	C867.037781,580.822205 867.019226,579.911072 866.951233,578.317993 
	C867.019287,577.868286 867.087280,577.418579 867.905396,576.743774 
	C868.269104,575.546753 868.950073,574.349976 868.951111,573.152527 
	C869.003479,513.799011 869.009521,454.445404 868.921997,395.091980 
	C868.919983,393.747284 867.784485,392.404297 867.017578,390.312653 
	C866.998047,389.549561 866.978516,388.786438 867.491638,387.540619 
	C866.732239,385.373627 865.972839,383.206635 864.933716,380.343597 
z"/>
<path fill="#957ACC" opacity="1.000000" stroke="none" 
	d="
M432.131409,459.052002 
	C432.111206,437.063080 431.385986,415.045227 432.285767,393.094025 
	C433.055908,374.305634 442.941833,360.138824 459.127136,350.633545 
	C500.615448,326.268402 542.159058,301.997253 583.705505,277.731232 
	C597.216370,269.839935 610.600403,261.697021 624.408264,254.357285 
	C642.085815,244.960571 659.953552,245.586685 677.291809,255.622055 
	C731.903809,287.231598 786.486450,318.891937 841.033813,350.612915 
	C852.746521,357.424164 860.415649,367.660675 865.103821,381.050903 
	C865.835632,383.846558 866.397339,385.934937 866.959045,388.023346 
	C866.978516,388.786438 866.998047,389.549561 867.009155,390.700165 
	C867.000671,391.087677 866.843933,391.001343 866.596802,391.331604 
	C866.234680,392.644165 866.019287,393.626404 866.019043,394.608704 
	C866.002625,453.623413 865.997925,512.638123 866.039307,571.652832 
	C866.040283,573.074097 866.574402,574.494934 866.945374,576.175964 
	C867.072388,576.613586 867.113892,576.791199 867.155334,576.968872 
	C867.087280,577.418579 867.019287,577.868286 866.888123,579.024536 
	C866.688110,580.472229 866.551208,581.213440 866.414307,581.954651 
	C862.030762,598.574158 852.388184,610.888977 837.412964,619.600586 
	C787.050354,648.898315 736.897400,678.556274 686.628296,708.015015 
	C678.404846,712.834106 669.880127,717.238586 660.039551,717.091797 
	C657.651367,717.056213 654.535706,715.551697 653.061218,713.688477 
	C648.184998,707.526428 642.452026,703.052368 635.142029,699.886780 
	C585.802124,678.519470 543.753906,646.983704 509.887421,605.433228 
	C484.667755,574.491577 461.535309,541.850037 437.411743,510.012207 
	C433.414642,504.736938 431.631836,499.050171 431.860626,492.367950 
	C432.219543,481.884491 431.984100,471.380737 432.198792,460.334595 
	C432.587067,459.464935 432.498474,459.221039 432.131409,459.052002 
M540.224365,452.344543 
	C540.392151,452.626740 540.619812,452.847107 541.450378,453.431091 
	C555.268494,478.466187 569.061096,503.515411 582.927429,528.523804 
	C585.485413,533.137207 588.341431,537.585388 591.682129,542.643127 
	C599.435852,542.463440 607.189636,542.283752 615.601135,541.965576 
	C616.048584,541.973022 616.496094,541.980530 617.725403,541.770264 
	C618.148926,540.612671 618.940796,539.455566 618.942566,538.297363 
	C619.004822,497.492126 619.011841,456.686737 618.904846,415.881683 
	C618.901489,414.591339 617.617188,413.304321 616.001770,412.035065 
	C614.003601,412.041077 612.000854,411.962219 610.008179,412.069672 
	C604.959839,412.341827 599.916077,412.697601 594.116577,413.244690 
	C593.749023,414.106140 593.062866,414.966949 593.061035,415.829163 
	C593.026062,432.113525 593.079773,448.398010 593.098450,464.682495 
	C593.111877,476.408447 593.101013,488.134430 593.101013,500.047424 
	C591.679993,499.574890 590.769104,499.271973 589.363159,498.506409 
	C574.113953,471.145966 558.880127,443.776917 543.577942,416.446106 
	C542.643433,414.777039 541.167236,413.411194 539.325867,411.363708 
	C531.221130,411.570740 523.116455,411.777771 514.748535,412.306122 
	C514.558472,412.507965 514.356445,412.697083 513.529053,413.484070 
	C513.354065,414.951996 513.027344,416.419769 513.026306,417.887848 
	C512.998047,457.687958 512.991760,497.488068 513.044434,537.288147 
	C513.046570,538.858337 513.664551,540.427673 514.600525,542.582581 
	C521.053528,542.716248 527.507263,542.942200 533.958801,542.890076 
	C534.999084,542.881592 536.029358,541.634644 537.620544,540.351013 
	C537.749573,538.376953 537.988953,536.403015 537.990906,534.428833 
	C538.016296,508.525787 537.980652,482.622681 538.061462,456.719879 
	C538.067810,454.674377 538.824768,452.631226 539.274231,450.842285 
	C539.274231,450.842285 539.025818,450.914398 539.254700,451.389587 
	C539.539062,451.588013 539.823364,451.786438 540.023010,451.999451 
	C540.023010,451.999451 540.011536,451.914337 540.224365,452.344543 
M706.104248,486.643707 
	C706.104248,486.643707 706.206482,486.220154 706.751099,485.548584 
	C706.511841,478.908783 706.272583,472.268951 705.683899,464.959503 
	C703.963135,464.644958 702.244446,464.072327 700.521179,464.058075 
	C690.049500,463.971375 679.574341,463.884125 669.105591,464.078156 
	C665.372192,464.147369 663.682129,463.310333 663.889465,459.130676 
	C664.226685,452.332062 664.172546,445.496826 663.903870,438.692047 
	C663.752991,434.868988 665.174316,433.881317 668.806580,433.938812 
	C680.771973,434.128235 692.742615,434.044830 704.710571,433.967285 
	C706.456543,433.955994 708.199158,433.405792 710.657471,432.601440 
	C710.424988,425.712280 710.192505,418.823120 709.353577,411.373840 
	C708.872314,411.257324 708.391235,411.039307 707.909851,411.038849 
	C686.438599,411.018036 664.967346,410.995270 643.496338,411.070404 
	C642.335999,411.074463 641.178467,411.918396 640.050293,413.261688 
	C640.044861,454.680756 640.028442,496.099854 640.077026,537.518860 
	C640.078857,539.053101 640.715332,540.586609 641.341980,542.518982 
	C641.877869,542.381653 642.413757,542.244324 643.760925,541.960999 
	C644.855103,542.010071 645.949280,542.059143 647.212158,542.392090 
	C647.212158,542.392090 647.645569,542.468445 647.645569,542.468445 
	C647.645569,542.468445 647.956482,542.107910 648.888489,541.959473 
	C654.942139,542.008057 660.995850,542.056702 667.331543,542.510986 
	C667.871094,542.375916 668.410645,542.240845 669.813293,541.960022 
	C671.559937,542.008606 673.306519,542.057190 675.421021,542.556213 
	C676.263245,542.405334 677.105469,542.254456 678.881287,541.956909 
	C685.273743,542.007263 691.666138,542.057617 698.668457,542.638977 
	C702.756287,542.467407 706.844177,542.295837 711.614685,541.588135 
	C711.614685,534.855042 711.614685,528.122009 711.614685,520.822632 
	C694.952820,520.822632 678.628723,520.822632 662.203552,520.822632 
	C662.203552,509.479492 662.203552,498.712036 663.111694,487.990479 
	C675.675964,487.991638 688.240356,488.028320 700.804199,487.952789 
	C702.539246,487.942383 704.270996,487.376495 706.104248,486.643707 
M757.270569,541.779297 
	C764.876282,543.655823 772.440918,544.194031 780.502380,540.483643 
	C780.666687,538.681763 780.971680,536.880005 780.974060,535.077942 
	C781.005981,511.118927 780.995239,487.159943 780.995728,463.200928 
	C780.995911,454.881836 781.115967,446.560242 780.940002,438.244904 
	C780.870483,434.960754 782.034546,433.875946 785.268616,433.950836 
	C792.751770,434.124207 800.242432,434.062195 807.728333,433.962921 
	C809.474121,433.939758 811.212891,433.387726 813.638184,432.549591 
	C813.757141,426.049347 813.876099,419.549103 813.703308,412.589752 
	C813.395996,412.403839 813.088623,412.217896 812.352661,412.042999 
	C812.352661,412.042999 811.945801,411.907715 811.329651,411.365051 
	C810.517273,411.244415 809.705017,411.018921 808.892578,411.018311 
	C781.854187,410.997772 754.815857,410.986786 727.777527,411.035126 
	C726.536438,411.037323 725.296326,411.601685 723.358215,412.422638 
	C723.590393,419.313202 723.822510,426.203766 724.668030,433.641113 
	C733.297913,433.761017 741.936096,434.152710 750.554260,433.889282 
	C755.047180,433.751923 756.122131,435.202759 756.098511,439.536621 
	C755.924500,471.462738 755.988770,503.390228 756.049561,535.317200 
	C756.053162,537.213928 756.673828,539.109436 757.270569,541.779297 
M482.616577,541.121338 
	C489.961182,545.724365 501.738098,541.338074 502.892761,531.467651 
	C503.635620,525.117188 500.007690,519.572266 493.978821,517.562988 
	C487.642975,515.451294 480.764771,518.020874 477.623962,523.672852 
	C474.333038,529.594910 475.874176,535.723999 482.616577,541.121338 
z"/>
<path fill="#957ACC" opacity="1.000000" stroke="none" 
	d="
M253.806091,629.036743 
	C257.595978,604.608093 261.385834,580.179382 265.606049,555.288025 
	C274.384155,552.691345 282.738861,550.584167 291.078430,548.418640 
	C322.385895,540.288879 353.698730,532.179443 384.985077,523.969116 
	C392.149841,522.088867 399.217041,519.836975 406.329163,517.756165 
	C422.868958,541.129822 438.956909,564.839966 456.053894,587.798645 
	C482.004517,622.646423 511.012360,654.706970 545.664795,681.286255 
	C565.290405,696.339600 586.209229,709.228210 608.723633,719.542236 
	C619.449036,724.455750 621.520447,735.379944 613.352905,743.981262 
	C603.777222,754.065308 591.632202,760.338806 578.426270,766.007690 
	C572.431946,763.137451 567.067566,760.486572 561.946716,757.428040 
	C523.843872,734.670410 488.101715,708.792969 456.748505,677.189087 
	C448.454437,668.828613 440.366669,660.263489 432.073090,651.660522 
	C431.835632,651.502502 431.709229,651.476257 431.582855,651.450012 
	C431.669250,651.679321 431.755646,651.908630 431.921936,652.483215 
	C435.581512,659.011597 439.136719,665.208984 442.745300,671.375183 
	C455.293610,692.817383 469.361664,713.256104 486.771240,730.984314 
	C502.484253,746.984924 519.361816,761.839111 535.618835,777.311218 
	C538.065002,779.639282 539.928223,782.579895 542.061096,785.237183 
	C534.311523,788.464722 526.561951,791.692261 518.101562,795.093018 
	C506.548309,798.812866 495.705811,802.359558 484.628357,805.668823 
	C482.777710,804.664124 480.872284,804.222412 479.590332,803.080688 
	C463.005981,788.311035 446.131989,773.835083 430.139404,758.444946 
	C421.096771,749.742920 413.333099,739.665100 405.383759,729.889465 
	C399.827820,723.057129 394.933075,715.687134 389.743011,708.557251 
	C389.354034,708.771790 388.965057,708.986267 388.576050,709.200806 
	C393.125092,718.893372 397.328125,728.767090 402.288696,738.244263 
	C416.582031,765.551697 434.628052,790.417480 452.752472,815.284363 
	C449.915710,816.218323 447.382050,817.044922 444.786499,817.559387 
	C431.956543,820.102417 419.110229,822.562744 405.891998,825.014709 
	C402.262360,822.726990 398.670746,820.840149 395.813141,818.168274 
	C376.047333,799.687256 360.652191,777.861023 348.105560,754.035889 
	C332.414429,724.239685 321.075867,692.731750 312.127625,660.236816 
	C312.133179,665.162537 312.563263,670.039429 312.920502,674.921631 
	C314.276184,693.450012 315.289215,712.010254 317.029358,730.502136 
	C319.243073,754.026978 323.562347,777.189148 332.029236,799.356689 
	C336.113464,810.049805 340.326324,820.795654 348.937561,829.289673 
	C349.372040,829.684448 349.660034,829.864868 349.974701,830.026794 
	C350.001373,830.008301 349.953430,830.055054 350.045410,830.284058 
	C350.333710,830.800781 350.602722,830.978149 350.943604,831.046753 
	C350.942719,831.048340 350.927734,831.061890 350.921906,831.375854 
	C350.957886,832.106201 350.999695,832.522644 350.573242,832.997742 
	C331.888855,832.031128 313.628967,831.483521 295.471100,829.821777 
	C282.124298,828.600342 269.659698,824.548096 262.212280,811.841553 
	C258.719177,799.040833 255.226089,786.240051 251.452682,773.119568 
	C251.172379,772.799805 251.166061,772.669617 251.166061,772.669617 
	C251.122147,771.990234 251.078232,771.310913 250.955338,769.979614 
	C250.620605,768.528931 250.364853,767.730164 250.109100,766.931335 
	C250.055878,766.183044 250.002640,765.434692 249.862900,763.960571 
	C249.187683,761.476501 248.598984,759.718201 248.010269,757.959900 
	C247.993668,757.516174 247.977051,757.072510 248.098907,756.091125 
	C248.135605,754.713074 248.033813,753.872620 247.932007,753.032227 
	C247.941772,752.569885 247.951523,752.107605 247.899399,751.019409 
	C247.566162,749.924622 247.294800,749.455627 247.023438,748.986694 
	C247.031967,747.922852 247.040482,746.858948 247.054626,744.992615 
	C247.080750,743.111877 247.101227,742.033691 247.258560,740.864624 
	C247.576736,740.441467 247.475067,740.194702 247.021393,739.697998 
	C246.971664,738.907593 246.990906,738.452698 247.297424,737.695557 
	C247.702820,723.838684 247.831909,710.284119 247.900986,696.729248 
	C247.903900,696.158020 247.348526,695.583923 246.995819,694.641724 
	C246.901260,693.526245 246.864120,692.780212 246.826965,692.034119 
	C246.888611,691.263184 246.950256,690.492249 247.022614,688.925415 
	C247.905670,679.105469 248.778046,670.081421 249.650421,661.057312 
	C249.783401,659.651489 249.916382,658.245728 250.130676,656.098389 
	C250.367126,654.255127 250.522278,653.153381 250.677429,652.051697 
	C250.827118,650.669128 250.976822,649.286499 251.301941,647.145691 
	C251.926239,642.936340 252.375107,639.485229 252.823975,636.034119 
	C252.890701,635.580444 252.957413,635.126770 253.127441,633.992432 
	C253.422531,631.886780 253.614319,630.461792 253.806091,629.036743 
M430.466522,649.675049 
	C430.466522,649.675049 430.572662,649.460327 430.572662,649.460327 
	C430.572662,649.460327 430.347900,649.502197 430.466522,649.675049 
M388.612732,706.534241 
	C388.612732,706.534241 388.445343,706.431885 388.445343,706.431885 
	C388.445343,706.431885 388.465942,706.643738 388.612732,706.534241 
z"/>
<path fill="#D1CFDB" opacity="1.000000" stroke="none" 
	d="
M484.863342,805.906311 
	C495.705811,802.359558 506.548309,798.812866 517.751892,795.196472 
	C519.024719,795.419983 519.930237,795.947083 520.849121,795.971436 
	C534.971741,796.347717 549.111023,796.358643 563.216675,797.054871 
	C584.574097,798.108948 605.971252,799.006042 627.232788,801.148376 
	C644.325928,802.870605 661.325195,805.922241 678.197449,809.241455 
	C684.900452,810.560120 691.497375,813.566040 697.515930,816.926208 
	C705.046448,821.130493 705.230042,828.000671 697.710632,831.906250 
	C689.689636,836.072388 681.083984,839.723877 672.305786,841.693726 
	C654.229431,845.750061 635.927063,848.922607 617.604675,851.717957 
	C604.198486,853.763367 590.634277,854.918152 577.100952,855.953003 
	C552.313965,857.848328 527.500793,859.408569 502.692017,861.006958 
	C494.910004,861.508301 487.109680,861.855835 479.313110,861.976746 
	C453.198090,862.382202 427.079315,862.992981 400.965240,862.863464 
	C381.710907,862.767944 362.397644,862.400208 343.225555,860.787720 
	C316.185730,858.513428 289.207581,855.316162 262.298065,851.788879 
	C253.333511,850.613708 244.575470,847.476440 235.898346,844.690125 
	C232.542099,843.612366 229.325012,841.411133 226.653580,839.036499 
	C221.304642,834.281799 221.561478,828.868469 227.889984,825.281006 
	C234.475784,821.547729 241.693146,818.867310 248.782501,816.107056 
	C252.931595,814.491577 257.370270,813.619934 261.945496,812.127686 
	C269.659698,824.548096 282.124298,828.600342 295.471100,829.821777 
	C313.628967,831.483521 331.888855,832.031128 350.939758,833.033813 
	C352.507996,832.977051 353.241455,832.943054 354.313477,832.937683 
	C355.102875,832.930176 355.553619,832.894043 356.271179,832.922546 
	C356.714844,833.034119 356.891724,833.080994 357.372009,833.389771 
	C365.440735,832.620361 373.206055,831.589172 381.298584,830.386841 
	C384.396759,829.748291 387.167725,829.280945 390.210938,828.812256 
	C390.657715,828.761353 390.832275,828.711670 391.343079,828.665039 
	C392.769440,828.391235 393.859558,828.114441 395.344757,827.833130 
	C399.249786,826.903137 402.759735,825.977722 406.269684,825.052246 
	C419.110229,822.562744 431.956543,820.102417 444.786499,817.559387 
	C447.382050,817.044922 449.915710,816.218323 453.166321,815.314087 
	C464.190918,812.030457 474.527130,808.968384 484.863342,805.906311 
z"/>
<path fill="#F1BC6D" opacity="1.000000" stroke="none" 
	d="
M283.036743,444.455017 
	C278.187164,425.636047 273.391571,406.802979 268.478210,388.000671 
	C251.833755,324.306213 235.150406,260.621918 218.474808,196.935608 
	C215.570038,185.841904 212.380188,174.816040 209.760788,163.655869 
	C204.704086,142.111542 225.602219,122.571365 246.656250,129.234604 
	C257.969757,132.815125 265.027374,140.841476 268.068817,152.346252 
	C277.714142,188.831100 287.492554,225.281342 296.983978,261.806152 
	C311.366364,317.152618 325.550598,372.550537 339.447235,428.363190 
	C320.395874,434.018188 301.716309,439.236603 283.036743,444.455017 
z"/>
<path fill="#947ACC" opacity="1.000000" stroke="none" 
	d="
M348.560242,460.914062 
	C350.518860,460.636261 352.568695,460.639557 354.422302,460.038086 
	C379.339203,451.952454 391.621918,465.839722 395.991516,485.494293 
	C396.640778,488.414703 397.090790,491.379425 397.273682,494.750793 
	C363.220673,503.798370 329.538422,512.463745 295.826324,521.011475 
	C285.891998,523.530334 275.873322,525.716553 265.893280,528.055176 
	C264.277802,519.871399 261.572876,511.722534 261.309052,503.495392 
	C260.938507,491.938110 269.747467,482.022736 281.002106,478.987610 
	C284.190765,478.127686 287.405365,477.364014 291.227661,476.217590 
	C310.751587,470.890686 329.655914,465.902374 348.560242,460.914062 
z"/>
<path fill="#6D59A1" opacity="1.000000" stroke="none" 
	d="
M265.897797,528.475586 
	C275.873322,525.716553 285.891998,523.530334 295.826324,521.011475 
	C329.538422,512.463745 363.220673,503.798370 397.274353,495.145935 
	C400.467499,502.420959 403.300598,509.728027 406.231445,517.395630 
	C399.217041,519.836975 392.149841,522.088867 384.985077,523.969116 
	C353.698730,532.179443 322.385895,540.288879 291.078430,548.418640 
	C282.738861,550.584167 274.384155,552.691345 265.672241,554.850586 
	C265.506195,546.215820 265.704254,537.555908 265.897797,528.475586 
z"/>
<path fill="#6D58A1" opacity="1.000000" stroke="none" 
	d="
M542.428101,785.162720 
	C539.928223,782.579895 538.065002,779.639282 535.618835,777.311218 
	C519.361816,761.839111 502.484253,746.984924 486.771240,730.984314 
	C469.361664,713.256104 455.293610,692.817383 442.745300,671.375183 
	C439.136719,665.208984 435.581512,659.011597 432.009521,652.398865 
	C432.017242,651.969238 432.184174,651.792358 432.184174,651.792358 
	C440.366669,660.263489 448.454437,668.828613 456.748505,677.189087 
	C488.101715,708.792969 523.843872,734.670410 561.946716,757.428040 
	C567.067566,760.486572 572.431946,763.137451 578.079712,766.029297 
	C576.504211,767.491882 574.672485,769.176575 572.536865,770.265503 
	C562.669250,775.297180 552.717041,780.162964 542.428101,785.162720 
z"/>
<path fill="#7C67AF" opacity="1.000000" stroke="none" 
	d="
M348.457520,460.508179 
	C329.655914,465.902374 310.751587,470.890686 291.468658,475.921143 
	C288.394409,465.703278 285.698792,455.443268 283.019958,444.819153 
	C301.716309,439.236603 320.395874,434.018188 339.462158,428.737305 
	C342.684204,439.150665 345.519501,449.626465 348.457520,460.508179 
z"/>
<path fill="#F9FAEE" opacity="1.000000" stroke="none" 
	d="
M867.530396,576.856323 
	C867.113892,576.791199 867.072388,576.613586 866.999268,575.716431 
	C867.006592,541.587036 867.088806,508.177063 867.071045,474.767151 
	C867.056152,446.845184 866.924133,418.923279 866.843933,391.001343 
	C866.843933,391.001343 867.000671,391.087677 867.089233,391.074097 
	C867.784485,392.404297 868.919983,393.747284 868.921997,395.091980 
	C869.009521,454.445404 869.003479,513.799011 868.951111,573.152527 
	C868.950073,574.349976 868.269104,575.546753 867.530396,576.856323 
z"/>
<path fill="#8364C5" opacity="1.000000" stroke="none" 
	d="
M247.053223,695.011169 
	C247.348526,695.583923 247.903900,696.158020 247.900986,696.729248 
	C247.831909,710.284119 247.702820,723.838684 247.224854,737.271545 
	C246.572189,732.102356 246.279358,727.054871 245.986526,722.007446 
	C246.032883,720.612061 246.079239,719.216736 246.111435,716.946533 
	C246.415924,709.051514 246.734573,702.031311 247.053223,695.011169 
z"/>
<path fill="#F9FAEE" opacity="1.000000" stroke="none" 
	d="
M249.308624,661.174438 
	C248.778046,670.081421 247.905670,679.105469 246.973785,688.540833 
	C246.608932,687.204285 245.884537,685.410461 246.070511,683.716614 
	C246.892990,676.225952 247.977295,668.763977 249.308624,661.174438 
z"/>
<path fill="#F9FAEE" opacity="1.000000" stroke="none" 
	d="
M246.995819,694.641724 
	C246.734573,702.031311 246.415924,709.051514 246.042236,716.532349 
	C246.018448,708.749207 246.049698,700.505371 246.453964,692.147827 
	C246.864120,692.780212 246.901260,693.526245 246.995819,694.641724 
z"/>
<path fill="#F9FAEE" opacity="1.000000" stroke="none" 
	d="
M245.705414,722.313599 
	C246.279358,727.054871 246.572189,732.102356 246.937592,737.573853 
	C246.990906,738.452698 246.971664,738.907593 246.992462,739.929688 
	C247.032501,740.496948 247.121689,740.955444 247.121689,740.955444 
	C247.101227,742.033691 247.080750,743.111877 247.028778,744.594116 
	C243.626266,737.738770 245.089554,730.139587 245.705414,722.313599 
z"/>
<path fill="#F9FAEE" opacity="1.000000" stroke="none" 
	d="
M252.469101,636.132935 
	C252.375107,639.485229 251.926239,642.936340 251.290924,646.727539 
	C251.441055,643.455627 251.777649,639.843689 252.469101,636.132935 
z"/>
<path fill="#F9FAEE" opacity="1.000000" stroke="none" 
	d="
M867.225342,387.781982 
	C866.397339,385.934937 865.835632,383.846558 865.243652,381.398895 
	C865.972839,383.206635 866.732239,385.373627 867.225342,387.781982 
z"/>
<path fill="#F9FAEE" opacity="1.000000" stroke="none" 
	d="
M253.475052,629.117615 
	C253.614319,630.461792 253.422531,631.886780 253.101654,633.648438 
	C253.029709,632.389465 253.086853,630.794006 253.475052,629.117615 
z"/>
<path fill="#F9FAEE" opacity="1.000000" stroke="none" 
	d="
M248.006454,758.363159 
	C248.598984,759.718201 249.187683,761.476501 249.772034,763.596252 
	C249.179352,762.227295 248.591003,760.496887 248.006454,758.363159 
z"/>
<path fill="#F9FAEE" opacity="1.000000" stroke="none" 
	d="
M250.370483,652.132324 
	C250.522278,653.153381 250.367126,654.255127 250.098938,655.674500 
	C250.011795,654.732422 250.037659,653.472656 250.370483,652.132324 
z"/>
<path fill="#F9FAEE" opacity="1.000000" stroke="none" 
	d="
M249.855743,767.126953 
	C250.364853,767.730164 250.620605,768.528931 250.864563,769.649658 
	C250.435974,769.088562 250.019180,768.205566 249.855743,767.126953 
z"/>
<path fill="#F9FAEE" opacity="1.000000" stroke="none" 
	d="
M247.704590,753.219971 
	C248.033813,753.872620 248.135605,754.713074 248.082947,755.758423 
	C247.778046,755.111450 247.627609,754.259583 247.704590,753.219971 
z"/>
<path fill="#F9FAEE" opacity="1.000000" stroke="none" 
	d="
M246.811035,749.150635 
	C247.294800,749.455627 247.566162,749.924622 247.822784,750.680176 
	C247.404907,750.416077 247.001770,749.865356 246.811035,749.150635 
z"/>
<path fill="#F9FAEE" opacity="1.000000" stroke="none" 
	d="
M866.735229,581.843994 
	C866.551208,581.213440 866.688110,580.472229 866.912842,579.365479 
	C867.019226,579.911072 867.037781,580.822205 866.735229,581.843994 
z"/>
<path fill="#F9FAEE" opacity="1.000000" stroke="none" 
	d="
M251.236786,772.809814 
	C251.167862,772.847107 251.034546,772.874390 251.033646,772.785645 
	C251.166061,772.669617 251.172379,772.799805 251.236786,772.809814 
z"/>
<path fill="#8364C5" opacity="1.000000" stroke="none" 
	d="
M432.101440,459.276001 
	C432.498474,459.221039 432.587067,459.464935 432.260559,459.866272 
	C432.123901,459.948914 432.071472,459.500000 432.101440,459.276001 
z"/>
<path fill="#FEFEFB" opacity="1.000000" stroke="none" 
	d="
M537.064209,540.960205 
	C536.029358,541.634644 534.999084,542.881592 533.958801,542.890076 
	C527.507263,542.942200 521.053528,542.716248 514.374573,541.826538 
	C514.146606,498.338196 514.144531,455.605835 514.142517,412.873474 
	C514.356445,412.697083 514.558472,412.507965 515.347656,412.156036 
	C523.945496,411.972076 531.944336,411.938202 539.943115,411.904297 
	C541.167236,413.411194 542.643433,414.777039 543.577942,416.446106 
	C558.880127,443.776917 574.113953,471.145966 589.655945,499.101990 
	C591.389832,502.310852 592.830994,504.924133 594.870483,508.622559 
	C594.870483,475.769348 594.870483,444.394592 594.870483,413.019836 
	C599.916077,412.697601 604.959839,412.341827 610.008179,412.069672 
	C612.000854,411.962219 614.003601,412.041077 616.546143,412.487274 
	C617.111206,434.036011 617.167480,455.132599 617.142761,476.229095 
	C617.117126,498.148773 617.013245,520.068359 616.943481,541.988037 
	C616.496094,541.980530 616.048584,541.973022 614.809570,541.990967 
	C606.365234,542.047485 598.712524,542.078674 591.059814,542.109863 
	C588.341431,537.585388 585.485413,533.137207 582.927429,528.523804 
	C569.061096,503.515411 555.268494,478.466187 541.145020,452.956421 
	C540.563599,452.292633 540.287537,452.103485 540.011536,451.914337 
	C540.011536,451.914337 540.023010,451.999451 540.020386,451.673309 
	C539.687134,451.202911 539.356506,451.058655 539.025818,450.914398 
	C539.025818,450.914398 539.274231,450.842285 539.255615,450.387939 
	C538.730530,448.824493 538.223938,447.715363 537.717407,446.606262 
	C537.499695,446.692474 537.281921,446.778687 537.064209,446.864929 
	C537.064209,478.230011 537.064209,509.595123 537.064209,540.960205 
z"/>
<path fill="#FEFEFB" opacity="1.000000" stroke="none" 
	d="
M641.056030,542.120422 
	C640.715332,540.586609 640.078857,539.053101 640.077026,537.518860 
	C640.028442,496.099854 640.044861,454.680756 640.499634,412.752655 
	C663.952698,412.140411 686.956421,412.037201 709.960083,411.933960 
	C710.192505,418.823120 710.424988,425.712280 709.838135,432.803802 
	C693.465881,433.006165 677.912903,433.006165 662.395081,433.006165 
	C662.395081,444.254730 662.395081,454.834320 662.395081,465.629150 
	C677.128845,465.629150 691.581055,465.629150 706.033325,465.629150 
	C706.272583,472.268951 706.511841,478.908783 706.240173,485.881042 
	C705.404419,486.282349 705.140808,486.448456 704.474304,486.728424 
	C691.526001,486.753601 679.041504,486.723907 666.558044,486.822235 
	C665.103699,486.833710 663.654907,487.553253 662.203552,487.944580 
	C662.203552,498.712036 662.203552,509.479492 662.203552,520.822632 
	C678.628723,520.822632 694.952820,520.822632 711.614685,520.822632 
	C711.614685,528.122009 711.614685,534.855042 710.817871,541.807251 
	C706.033569,542.053528 702.046082,542.080750 698.058594,542.107910 
	C691.666138,542.057617 685.273743,542.007263 678.053833,541.989258 
	C676.501953,542.049622 675.777588,542.077698 675.053162,542.105713 
	C673.306519,542.057190 671.559937,542.008606 669.065796,541.993042 
	C667.895386,542.052490 667.472473,542.078857 667.049500,542.105225 
	C660.995850,542.056702 654.942139,542.008057 648.194214,542.002441 
	C647.500000,542.045410 647.043457,542.108215 647.043457,542.108215 
	C645.949280,542.059143 644.855103,542.010071 643.040283,541.994568 
	C641.898376,542.058899 641.477234,542.089661 641.056030,542.120422 
z"/>
<path fill="#FEFEFB" opacity="1.000000" stroke="none" 
	d="
M724.054688,433.094330 
	C723.822510,426.203766 723.590393,419.313202 724.168945,412.216980 
	C753.968384,411.976776 782.957092,411.942230 811.945801,411.907715 
	C811.945801,411.907715 812.352661,412.042999 812.712524,412.270752 
	C813.380005,412.681976 813.687500,412.865417 813.995056,413.048859 
	C813.876099,419.549103 813.757141,426.049347 812.833984,432.759705 
	C801.425720,432.969849 790.821655,432.969849 780.217102,432.969849 
	C780.008484,433.869781 779.809326,434.327515 779.809570,434.785095 
	C779.827515,470.218140 779.861023,505.651184 779.893433,541.084229 
	C772.440918,544.194031 764.876282,543.655823 757.200073,540.926514 
	C757.129517,504.437866 757.129517,468.802002 757.129517,433.094330 
	C745.627686,433.094330 734.841187,433.094330 724.054688,433.094330 
z"/>
<path fill="#FEFEFB" opacity="1.000000" stroke="none" 
	d="
M482.272552,540.956970 
	C475.874176,535.723999 474.333038,529.594910 477.623962,523.672852 
	C480.764771,518.020874 487.642975,515.451294 493.978821,517.562988 
	C500.007690,519.572266 503.635620,525.117188 502.892761,531.467651 
	C501.738098,541.338074 489.961182,545.724365 482.272552,540.956970 
z"/>
<path fill="#8364C5" opacity="1.000000" stroke="none" 
	d="
M617.334473,541.879150 
	C617.013245,520.068359 617.117126,498.148773 617.142761,476.229095 
	C617.167480,455.132599 617.111206,434.036011 617.010254,412.477600 
	C617.617188,413.304321 618.901489,414.591339 618.904846,415.881683 
	C619.011841,456.686737 619.004822,497.492126 618.942566,538.297363 
	C618.940796,539.455566 618.148926,540.612671 617.334473,541.879150 
z"/>
<path fill="#896DC7" opacity="1.000000" stroke="none" 
	d="
M594.493530,413.132263 
	C594.870483,444.394592 594.870483,475.769348 594.870483,508.622559 
	C592.830994,504.924133 591.389832,502.310852 589.903442,499.333313 
	C590.769104,499.271973 591.679993,499.574890 593.101013,500.047424 
	C593.101013,488.134430 593.111877,476.408447 593.098450,464.682495 
	C593.079773,448.398010 593.026062,432.113525 593.061035,415.829163 
	C593.062866,414.966949 593.749023,414.106140 594.493530,413.132263 
z"/>
<path fill="#7C5CC1" opacity="1.000000" stroke="none" 
	d="
M705.858643,465.294312 
	C691.581055,465.629150 677.128845,465.629150 662.395081,465.629150 
	C662.395081,454.834320 662.395081,444.254730 662.395081,433.006165 
	C677.912903,433.006165 693.465881,433.006165 709.481079,433.055573 
	C708.199158,433.405792 706.456543,433.955994 704.710571,433.967285 
	C692.742615,434.044830 680.771973,434.128235 668.806580,433.938812 
	C665.174316,433.881317 663.752991,434.868988 663.903870,438.692047 
	C664.172546,445.496826 664.226685,452.332062 663.889465,459.130676 
	C663.682129,463.310333 665.372192,464.147369 669.105591,464.078156 
	C679.574341,463.884125 690.049500,463.971375 700.521179,464.058075 
	C702.244446,464.072327 703.963135,464.644958 705.858643,465.294312 
z"/>
<path fill="#7C5CC1" opacity="1.000000" stroke="none" 
	d="
M866.596802,391.331604 
	C866.924133,418.923279 867.056152,446.845184 867.071045,474.767151 
	C867.088806,508.177063 867.006592,541.587036 866.913757,575.456482 
	C866.574402,574.494934 866.040283,573.074097 866.039307,571.652832 
	C865.997925,512.638123 866.002625,453.623413 866.019043,394.608704 
	C866.019287,393.626404 866.234680,392.644165 866.596802,391.331604 
z"/>
<path fill="#7956C0" opacity="1.000000" stroke="none" 
	d="
M724.361328,433.367737 
	C734.841187,433.094330 745.627686,433.094330 757.129517,433.094330 
	C757.129517,468.802002 757.129517,504.437866 757.068481,540.539673 
	C756.673828,539.109436 756.053162,537.213928 756.049561,535.317200 
	C755.988770,503.390228 755.924500,471.462738 756.098511,439.536621 
	C756.122131,435.202759 755.047180,433.751923 750.554260,433.889282 
	C741.936096,434.152710 733.297913,433.761017 724.361328,433.367737 
z"/>
<path fill="#7C5CC1" opacity="1.000000" stroke="none" 
	d="
M780.197876,540.783936 
	C779.861023,505.651184 779.827515,470.218140 779.809570,434.785095 
	C779.809326,434.327515 780.008484,433.869781 780.217102,432.969849 
	C790.821655,432.969849 801.425720,432.969849 812.492310,433.024414 
	C811.212891,433.387726 809.474121,433.939758 807.728333,433.962921 
	C800.242432,434.062195 792.751770,434.124207 785.268616,433.950836 
	C782.034546,433.875946 780.870483,434.960754 780.940002,438.244904 
	C781.115967,446.560242 780.995911,454.881836 780.995728,463.200928 
	C780.995239,487.159943 781.005981,511.118927 780.974060,535.077942 
	C780.971680,536.880005 780.666687,538.681763 780.197876,540.783936 
z"/>
<path fill="#7C5CC1" opacity="1.000000" stroke="none" 
	d="
M513.835815,413.178772 
	C514.144531,455.605835 514.146606,498.338196 514.072083,541.533997 
	C513.664551,540.427673 513.046570,538.858337 513.044434,537.288147 
	C512.991760,497.488068 512.998047,457.687958 513.026306,417.887848 
	C513.027344,416.419769 513.354065,414.951996 513.835815,413.178772 
z"/>
<path fill="#7956C0" opacity="1.000000" stroke="none" 
	d="
M537.342407,540.655640 
	C537.064209,509.595123 537.064209,478.230011 537.064209,446.864929 
	C537.281921,446.778687 537.499695,446.692474 537.717407,446.606262 
	C538.223938,447.715363 538.730530,448.824493 539.234985,450.260284 
	C538.824768,452.631226 538.067810,454.674377 538.061462,456.719879 
	C537.980652,482.622681 538.016296,508.525787 537.990906,534.428833 
	C537.988953,536.403015 537.749573,538.376953 537.342407,540.655640 
z"/>
<path fill="#7956C0" opacity="1.000000" stroke="none" 
	d="
M811.637695,411.636383 
	C782.957092,411.942230 753.968384,411.976776 724.517700,411.957764 
	C725.296326,411.601685 726.536438,411.037323 727.777527,411.035126 
	C754.815857,410.986786 781.854187,410.997772 808.892578,411.018311 
	C809.705017,411.018921 810.517273,411.244415 811.637695,411.636383 
z"/>
<path fill="#7956C0" opacity="1.000000" stroke="none" 
	d="
M709.656860,411.653900 
	C686.956421,412.037201 663.952698,412.140411 640.484375,412.307495 
	C641.178467,411.918396 642.335999,411.074463 643.496338,411.070404 
	C664.967346,410.995270 686.438599,411.018036 707.909851,411.038849 
	C708.391235,411.039307 708.872314,411.257324 709.656860,411.653900 
z"/>
<path fill="#7956C0" opacity="1.000000" stroke="none" 
	d="
M662.657593,487.967529 
	C663.654907,487.553253 665.103699,486.833710 666.558044,486.822235 
	C679.041504,486.723907 691.526001,486.753601 704.727051,486.858643 
	C705.630676,487.004059 705.817444,487.035919 706.004272,487.067780 
	C704.270996,487.376495 702.539246,487.942383 700.804199,487.952789 
	C688.240356,488.028320 675.675964,487.991638 662.657593,487.967529 
z"/>
<path fill="#7956C0" opacity="1.000000" stroke="none" 
	d="
M539.634521,411.634003 
	C531.944336,411.938202 523.945496,411.972076 515.479248,411.995361 
	C523.116455,411.777771 531.221130,411.570740 539.634521,411.634003 
z"/>
<path fill="#7C5CC1" opacity="1.000000" stroke="none" 
	d="
M591.370972,542.376465 
	C598.712524,542.078674 606.365234,542.047485 614.480652,542.060181 
	C607.189636,542.283752 599.435852,542.463440 591.370972,542.376465 
z"/>
<path fill="#7C5CC1" opacity="1.000000" stroke="none" 
	d="
M698.363525,542.373413 
	C702.046082,542.080750 706.033569,542.053528 710.476562,542.075317 
	C706.844177,542.295837 702.756287,542.467407 698.363525,542.373413 
z"/>
<path fill="#7C5CC1" opacity="1.000000" stroke="none" 
	d="
M675.237061,542.330994 
	C675.777588,542.077698 676.501953,542.049622 677.587036,542.062622 
	C677.105469,542.254456 676.263245,542.405334 675.237061,542.330994 
z"/>
<path fill="#7C5CC1" opacity="1.000000" stroke="none" 
	d="
M667.190552,542.308105 
	C667.472473,542.078857 667.895386,542.052490 668.634277,542.065918 
	C668.410645,542.240845 667.871094,542.375916 667.190552,542.308105 
z"/>
<path fill="#7C5CC1" opacity="1.000000" stroke="none" 
	d="
M641.198975,542.319702 
	C641.477234,542.089661 641.898376,542.058899 642.634644,542.067566 
	C642.413757,542.244324 641.877869,542.381653 641.198975,542.319702 
z"/>
<path fill="#7C5CC1" opacity="1.000000" stroke="none" 
	d="
M647.127808,542.250122 
	C647.043457,542.108215 647.500000,542.045410 647.728271,542.076660 
	C647.956482,542.107910 647.645569,542.468445 647.645569,542.468445 
	C647.645569,542.468445 647.212158,542.392090 647.127808,542.250122 
z"/>
<path fill="#7956C0" opacity="1.000000" stroke="none" 
	d="
M813.849182,412.819305 
	C813.687500,412.865417 813.380005,412.681976 812.926880,412.265259 
	C813.088623,412.217896 813.395996,412.403839 813.849182,412.819305 
z"/>
<path fill="#7956C0" opacity="1.000000" stroke="none" 
	d="
M539.140259,451.151978 
	C539.356506,451.058655 539.687134,451.202911 540.062744,451.666016 
	C539.823364,451.786438 539.539062,451.588013 539.140259,451.151978 
z"/>
<path fill="#CFC5E7" opacity="1.000000" stroke="none" 
	d="
M706.054260,486.855743 
	C705.817444,487.035919 705.630676,487.004059 705.191162,486.841980 
	C705.140808,486.448456 705.404419,486.282349 705.967896,486.216797 
	C706.206482,486.220154 706.104248,486.643707 706.054260,486.855743 
z"/>
<path fill="#7956C0" opacity="1.000000" stroke="none" 
	d="
M540.117920,452.129456 
	C540.287537,452.103485 540.563599,452.292633 540.873413,452.743713 
	C540.619812,452.847107 540.392151,452.626740 540.117920,452.129456 
z"/>
<path fill="#6D59A1" opacity="1.000000" stroke="none" 
	d="
M405.891998,825.014648 
	C402.759735,825.977722 399.249786,826.903137 395.111633,827.617188 
	C393.324554,827.824585 392.165710,828.243347 391.006836,828.662109 
	C390.832275,828.711670 390.657715,828.761353 389.909058,828.578186 
	C384.890411,829.210327 380.445923,830.075256 375.686035,831.012451 
	C374.945679,831.150085 374.520660,831.215454 373.843750,830.966553 
	C368.085449,830.867310 362.577332,831.052063 357.076294,831.362549 
	C356.692108,831.384277 356.360474,832.337769 356.004395,832.857910 
	C355.553619,832.894043 355.102875,832.930176 354.125610,832.704712 
	C352.708649,831.982727 351.818207,831.522278 350.927734,831.061890 
	C350.927734,831.061890 350.942719,831.048340 350.840485,830.826416 
	C350.540863,830.329651 350.279266,830.146484 349.953430,830.055054 
	C349.953430,830.055054 350.001373,830.008301 349.851135,829.793701 
	C349.397614,829.411194 349.094299,829.243286 348.791016,829.075439 
	C340.326324,820.795654 336.113464,810.049805 332.029236,799.356689 
	C323.562347,777.189148 319.243073,754.026978 317.029358,730.502136 
	C315.289215,712.010254 314.276184,693.450012 312.920502,674.921631 
	C312.563263,670.039429 312.133179,665.162537 312.127625,660.236816 
	C321.075867,692.731750 332.414429,724.239685 348.105560,754.035889 
	C360.652191,777.861023 376.047333,799.687256 395.813141,818.168274 
	C398.670746,820.840149 402.262360,822.726990 405.891998,825.014648 
z"/>
<path fill="#6D58A1" opacity="1.000000" stroke="none" 
	d="
M484.628357,805.668823 
	C474.527130,808.968384 464.190918,812.030457 453.440887,815.062805 
	C434.628052,790.417480 416.582031,765.551697 402.288696,738.244263 
	C397.328125,728.767090 393.125092,718.893372 388.576050,709.200806 
	C388.965057,708.986267 389.354034,708.771790 389.743011,708.557251 
	C394.933075,715.687134 399.827820,723.057129 405.383759,729.889465 
	C413.333099,739.665100 421.096771,749.742920 430.139404,758.444946 
	C446.131989,773.835083 463.005981,788.311035 479.590332,803.080688 
	C480.872284,804.222412 482.777710,804.664124 484.628357,805.668823 
z"/>
<path fill="#6D58A1" opacity="1.000000" stroke="none" 
	d="
M350.921906,831.375854 
	C351.818207,831.522278 352.708649,831.982727 353.786987,832.676086 
	C353.241455,832.943054 352.507996,832.977051 351.408051,832.975098 
	C350.999695,832.522644 350.957886,832.106201 350.921906,831.375854 
z"/>
<path fill="#6D58A1" opacity="1.000000" stroke="none" 
	d="
M350.045410,830.284058 
	C350.279266,830.146484 350.540863,830.329651 350.841370,830.824829 
	C350.602722,830.978149 350.333710,830.800781 350.045410,830.284058 
z"/>
<path fill="#6D58A1" opacity="1.000000" stroke="none" 
	d="
M348.937531,829.289734 
	C349.094299,829.243286 349.397614,829.411194 349.824463,829.812195 
	C349.660034,829.864868 349.372040,829.684448 348.937531,829.289734 
z"/>
<path fill="#6D58A1" opacity="1.000000" stroke="none" 
	d="
M430.407227,649.588623 
	C430.347900,649.502197 430.572662,649.460327 430.572662,649.460327 
	C430.572662,649.460327 430.466522,649.675049 430.407227,649.588623 
z"/>
<path fill="#6D58A1" opacity="1.000000" stroke="none" 
	d="
M431.929626,652.053589 
	C431.755646,651.908630 431.669250,651.679321 431.582855,651.450012 
	C431.709229,651.476257 431.835632,651.502502 432.073090,651.660522 
	C432.184174,651.792358 432.017242,651.969238 431.929626,652.053589 
z"/>
<path fill="#8364C5" opacity="1.000000" stroke="none" 
	d="
M247.258560,740.864624 
	C247.121689,740.955444 247.032501,740.496948 247.061447,740.265259 
	C247.475067,740.194702 247.576736,740.441467 247.258560,740.864624 
z"/>
<path fill="#6D58A1" opacity="1.000000" stroke="none" 
	d="
M388.539337,706.588989 
	C388.465942,706.643738 388.445343,706.431885 388.445343,706.431885 
	C388.445343,706.431885 388.612732,706.534241 388.539337,706.588989 
z"/>
<path fill="#6D58A1" opacity="1.000000" stroke="none" 
	d="
M356.271179,832.922546 
	C356.360474,832.337769 356.692108,831.384277 357.076294,831.362549 
	C362.577332,831.052063 368.085449,830.867310 373.565277,831.277222 
	C368.048676,832.310791 362.558624,832.719299 357.068604,833.127808 
	C356.891724,833.080994 356.714844,833.034119 356.271179,832.922546 
z"/>
<path fill="#EBEAEA" opacity="1.000000" stroke="none" 
	d="
M357.372009,833.389709 
	C362.558624,832.719299 368.048676,832.310791 373.817200,831.591492 
	C374.520660,831.215454 374.945679,831.150085 376.100647,831.045776 
	C378.210876,830.857117 379.591125,830.707581 380.971375,830.557983 
	C373.206055,831.589172 365.440735,832.620361 357.372009,833.389709 
z"/>
<path fill="#6D58A1" opacity="1.000000" stroke="none" 
	d="
M381.298584,830.386841 
	C379.591125,830.707581 378.210876,830.857117 376.416016,830.973450 
	C380.445923,830.075256 384.890411,829.210327 389.636841,828.579468 
	C387.167725,829.280945 384.396759,829.748291 381.298584,830.386841 
z"/>
<path fill="#6D58A1" opacity="1.000000" stroke="none" 
	d="
M391.343079,828.665039 
	C392.165710,828.243347 393.324554,827.824585 394.716522,827.621765 
	C393.859558,828.114441 392.769440,828.391235 391.343079,828.665039 
z"/>
</svg>
